<svg width="80" height="80" viewBox="0 0 80 80" fill="none" xmlns="http://www.w3.org/2000/svg">
<path d="M71.111 13.3334H8.88878C7.71004 13.3334 6.57958 13.8016 5.74608 14.6351C4.91259 15.4686 4.44434 16.5991 4.44434 17.7778V62.2223C4.44434 63.401 4.91259 64.5315 5.74608 65.365C6.57958 66.1984 7.71004 66.6667 8.88878 66.6667H42.2221L43.4888 65.1111L45.5555 62.5778L45.3554 62.2223H8.88878V17.7778H71.111V36.8C72.7993 37.8929 74.3 39.2511 75.5555 40.8223V17.7778C75.5555 16.5991 75.0872 15.4686 74.2537 14.6351C73.4202 13.8016 72.2897 13.3334 71.111 13.3334Z" fill="#007F00"/>
<path d="M15.5557 26.6666H53.3334V30.2222H15.5557V26.6666Z" fill="#007F00"/>
<path d="M15.5557 35.5557H40.0001V39.1112H15.5557V35.5557Z" fill="#007F00"/>
<path d="M15.5557 51.1112H37.7779V54.6668H15.5557V51.1112Z" fill="#007F00"/>
<path d="M61.0219 38.2888C58.1782 38.2662 55.3938 39.102 53.0327 40.6869C50.6715 42.2719 48.8434 44.5323 47.7872 47.1727C46.7311 49.8131 46.496 52.7107 47.1127 55.4868C47.7295 58.2629 49.1693 60.7884 51.2442 62.7332L46.933 67.9999L48.933 76.0221L57.0664 66.111C59.6409 66.8722 62.3807 66.8722 64.9553 66.111L73.0886 76.0221L75.0886 67.9999L70.7775 62.7332C72.8523 60.7884 74.2922 58.2629 74.9089 55.4868C75.5256 52.7107 75.2906 49.8131 74.2344 47.1727C73.1782 44.5323 71.3501 42.2719 68.989 40.6869C66.6278 39.102 63.8434 38.2662 60.9997 38.2888H61.0219ZM61.0219 62.0221C59.1335 61.9958 57.295 61.4118 55.7376 60.3435C54.1802 59.2753 52.9734 57.7704 52.2689 56.0181C51.5643 54.2659 51.3936 52.3444 51.7781 50.4954C52.1625 48.6464 53.0851 46.9523 54.4297 45.6261C55.7744 44.2999 57.4811 43.4009 59.3352 43.042C61.1894 42.6831 63.1083 42.8804 64.8507 43.6091C66.593 44.3378 68.0811 45.5653 69.1277 47.1373C70.1743 48.7094 70.7329 50.5557 70.733 52.4443C70.7096 55.0004 69.6747 57.4431 67.8547 59.238C66.0348 61.0329 63.5781 62.034 61.0219 62.0221Z" fill="#007F00"/>
</svg>
