<svg width="80" height="80" viewBox="0 0 80 80" fill="none" xmlns="http://www.w3.org/2000/svg">
<g clip-path="url(#clip0_5465_1686)">
<path d="M64.9229 69.6774L61.9358 60.7148C60.892 57.5858 58.2288 55.2761 54.9823 54.6851L46.3591 53.1161V52.4477C47.8597 51.5767 49.1655 50.4116 50.2055 49.0322H52.8107C54.9449 49.0322 56.6817 47.2955 56.6817 45.1613V29.6774C56.6817 20.4284 49.1565 12.9032 39.9075 12.9032C30.6584 12.9032 23.1333 20.4284 23.1333 29.6774V38.7096C23.1333 41.1974 24.9023 43.2787 27.2481 43.7638C27.972 47.4722 30.2894 50.6103 33.4558 52.4477V53.1161L24.8313 54.6851C21.5862 55.2761 18.9216 57.5858 17.8791 60.7148L17.3629 62.2645L12.9681 57.8696C12.4649 57.3664 12.4649 56.5471 12.9681 56.0438L18.0649 50.9484L8.49842 41.3819L2.73842 47.1419C1.03262 48.8477 0.0932617 51.1161 0.0932617 53.529C0.0932617 55.9419 1.03262 58.209 2.73842 59.9148L20.1771 77.3535C21.8829 79.0593 24.1513 80 26.5642 80C28.9771 80 31.2442 79.0593 32.91 77.3922L39.1952 71.6335L37.2352 69.6774H64.9229ZM54.101 45.1613C54.101 45.8735 53.5217 46.4516 52.8107 46.4516H51.7255C52.0997 45.5987 52.3836 44.6993 52.5668 43.7638C53.1191 43.649 53.6275 43.4296 54.101 43.1535V45.1613ZM52.8107 40.9316V36.4877C53.5784 36.9355 54.101 37.7587 54.101 38.7096C54.101 39.6606 53.5784 40.4838 52.8107 40.9316ZM27.0042 40.9316C26.2365 40.4838 25.7139 39.6606 25.7139 38.7096C25.7139 37.7587 26.2365 36.9355 27.0042 36.4877V40.9316ZM27.0042 32.258V33.7316C26.5449 33.8516 26.1139 34.0322 25.7139 34.2658V29.6774C25.7139 21.8516 32.0816 15.4838 39.9075 15.4838C47.7333 15.4838 54.101 21.8516 54.101 29.6774V34.2658C53.701 34.0322 53.27 33.8503 52.8107 33.7316V32.258H51.5204C47.7049 32.258 44.1178 30.7716 41.4184 28.0735L39.9075 26.5626L38.3965 28.0735C35.6971 30.7716 32.11 32.258 28.2946 32.258H27.0042ZM29.5849 41.2903V34.7896C33.4597 34.498 37.0726 32.8993 39.9075 30.2038C42.7423 32.8993 46.3552 34.4993 50.23 34.7896V41.2903C50.23 43.1716 49.7165 44.9316 48.8339 46.4516H39.9075V49.0322H46.7126C44.8933 50.6335 42.5152 51.6129 39.9075 51.6129C34.2158 51.6129 29.5849 46.9819 29.5849 41.2903ZM43.7784 53.5987V53.6593L39.9075 57.5303L36.0365 53.6593V53.5987C37.2597 53.9832 38.5591 54.1935 39.9075 54.1935C41.2558 54.1935 42.5552 53.9832 43.7784 53.5987ZM20.3255 61.5303C21.07 59.2955 22.9733 57.6451 25.292 57.2219L34.3113 55.5832L39.9075 61.1793L45.5023 55.5845L54.5204 57.2232C56.8391 57.6464 58.7423 59.2955 59.4868 61.5316L61.3436 67.0967H34.6546L29.6287 62.0709L24.0442 67.1226C23.5578 67.6116 22.7075 67.6116 22.2197 67.1226L19.4016 64.3045L20.3255 61.5303ZM8.49713 45.0309L14.4146 50.9484L13.0133 52.3496L7.09584 46.4322L8.49713 45.0309ZM31.1229 75.5316C29.9049 76.7471 28.2842 77.4193 26.5617 77.4193C24.8391 77.4193 23.2184 76.7471 21.9991 75.529L4.56036 58.0916C3.34229 56.8735 2.67133 55.2529 2.67133 53.5303C2.67133 51.8064 3.34229 50.1858 4.56036 48.9677L5.27004 48.258L11.1875 54.1755L11.141 54.2219C9.63262 55.7316 9.63262 58.1871 11.141 59.6967L20.3939 68.9496C21.1255 69.68 22.0971 70.0838 23.132 70.0838C24.1668 70.0838 25.1384 69.6813 25.8223 68.9948L25.9191 68.9084L31.8636 74.8529L31.1229 75.5316ZM33.7681 73.1058L27.8365 67.1742L29.541 65.6335L35.4623 71.5548L33.7681 73.1058Z" fill="#007F00"/>
<path d="M76.0366 0H57.972C55.8378 0 54.1011 1.73677 54.1011 3.87097V14.1935C54.1011 16.3277 55.8378 18.0645 57.972 18.0645H61.4185L60.0843 25.8465L72.5359 18.0645H76.0366C78.1708 18.0645 79.9075 16.3277 79.9075 14.1935V3.87097C79.9075 1.73677 78.1708 0 76.0366 0ZM77.3269 14.1935C77.3269 14.9045 76.7475 15.4839 76.0366 15.4839H71.7953L63.6004 20.6052L64.4791 15.4839H57.972C57.2611 15.4839 56.6817 14.9045 56.6817 14.1935V3.87097C56.6817 3.16 57.2611 2.58065 57.972 2.58065H76.0366C76.7475 2.58065 77.3269 3.16 77.3269 3.87097V14.1935Z" fill="#007F00"/>
<path d="M74.7461 5.16125H59.2622V7.7419H74.7461V5.16125Z" fill="#007F00"/>
<path d="M69.5848 10.3226H59.2622V12.9033H69.5848V10.3226Z" fill="#007F00"/>
<path d="M74.7462 10.3226H72.1655V12.9033H74.7462V10.3226Z" fill="#007F00"/>
<path d="M39.9078 3.87097C23.0484 3.87097 8.52583 15.5329 4.75035 31.8L2.30519 27.7239L0.0922852 29.0516L4.62777 36.609L12.1852 32.0736L10.8574 29.8606L7.36067 31.9587C11.0174 17.0774 24.3994 6.45162 39.9078 6.45162C43.2974 6.45162 46.642 6.95484 49.8484 7.94839L50.6123 5.48387C47.1581 4.41291 43.5568 3.87097 39.9078 3.87097Z" fill="#007F00"/>
<path d="M79.2807 28.5704L71.7233 24.0349L67.1891 31.5936L69.402 32.9214L71.6601 29.1575C72.8485 32.6349 73.4562 36.2723 73.4562 40.0001C73.4562 47.6736 70.7981 55.1756 65.9736 61.1227L67.9775 62.7485C73.1749 56.3433 76.0369 48.2633 76.0369 40.0001C76.0369 36.053 75.4007 32.1988 74.1607 28.5085L77.953 30.7833L79.2807 28.5704Z" fill="#007F00"/>
</g>
<defs>
<clipPath id="clip0_5465_1686">
<rect width="80" height="80" fill="white"/>
</clipPath>
</defs>
</svg>
