<svg width="80" height="79" viewBox="0 0 80 79" fill="none" xmlns="http://www.w3.org/2000/svg">
<g clip-path="url(#clip0_5465_1445)">
<path d="M70.6935 80C70.3669 80 70.0402 79.9033 69.7569 79.7133L58.3335 71.94L46.9102 79.7133C46.3402 80.1033 45.5869 80.0967 45.0169 79.7C44.4469 79.3033 44.1869 78.5967 44.3569 77.9267L47.8935 63.9667L37.2535 54.88C36.7369 54.4367 36.5402 53.7233 36.7569 53.08C36.9735 52.4367 37.5602 51.9867 38.2402 51.95L51.8502 51.18L56.7735 37.7633C57.2569 36.45 59.4202 36.45 59.9002 37.7633L64.8235 51.18L78.4335 51.95C79.1135 51.9867 79.7002 52.4367 79.9169 53.08C80.1335 53.7233 79.9369 54.4367 79.4202 54.88L68.7802 63.9667L72.3169 77.9267C72.4869 78.5967 72.2235 79.3033 71.6569 79.7C71.3635 79.9 71.0302 80 70.6935 80ZM58.3335 68.2567C58.6602 68.2567 58.9869 68.3533 59.2702 68.5433L68.0002 74.4833L65.2902 63.78C65.1369 63.1667 65.3435 62.5167 65.8235 62.1033L74.0935 55.04L63.5369 54.44C62.8735 54.4033 62.2935 53.9733 62.0669 53.35L58.3335 43.17L54.6002 53.35C54.3735 53.9733 53.7935 54.4 53.1302 54.44L42.5735 55.04L50.8435 62.1033C51.3269 62.5167 51.5335 63.1667 51.3769 63.78L48.6669 74.4833L57.3969 68.5433C57.6802 68.35 58.0069 68.2567 58.3335 68.2567Z" fill="#007F00"/>
<path d="M35 66.6666H1.66667C0.746667 66.6666 0 65.92 0 65V51.6667C0 45.2333 5.23333 40 11.6667 40H45C45.92 40 46.6667 40.7467 46.6667 41.6667C46.6667 42.5867 45.92 43.3333 45 43.3333H11.6667C7.07333 43.3333 3.33333 47.0733 3.33333 51.6667V63.3333H35C35.92 63.3333 36.6667 64.08 36.6667 65C36.6667 65.92 35.92 66.6666 35 66.6666Z" fill="#007F00"/>
<path d="M26.6667 33.3333C20.2333 33.3333 15 28.1 15 21.6667C15 20.7467 15.7467 20 16.6667 20C22.3933 20 25 15.68 25 11.6667C25 10.7467 25.7467 10 26.6667 10C27.5867 10 28.3333 10.7467 28.3333 11.6667C28.3333 15.68 30.94 20 36.6667 20C37.5867 20 38.3333 20.7467 38.3333 21.6667C38.3333 28.1 33.1 33.3333 26.6667 33.3333ZM18.4767 23.2167C19.2067 27.0733 22.6033 30 26.6667 30C30.73 30 34.1267 27.0733 34.8567 23.2167C31.02 22.7167 28.27 20.6267 26.6667 17.8967C25.0633 20.6267 22.3133 22.7167 18.4767 23.2167Z" fill="#007F00"/>
<path d="M40.0001 33.3333H13.3335C10.5768 33.3333 8.3335 31.09 8.3335 28.3333V18.3333C8.3335 8.22333 16.5568 0 26.6668 0C36.7768 0 45.0001 8.22333 45.0001 18.3333V28.3333C45.0001 31.09 42.7568 33.3333 40.0001 33.3333ZM26.6668 3.33333C18.3968 3.33333 11.6668 10.0633 11.6668 18.3333V28.3333C11.6668 29.2533 12.4135 30 13.3335 30H40.0001C40.9201 30 41.6668 29.2533 41.6668 28.3333V18.3333C41.6668 10.0633 34.9368 3.33333 26.6668 3.33333Z" fill="#007F00"/>
</g>
<defs>
<clipPath id="clip0_5465_1445">
<rect width="80" height="80" fill="white"/>
</clipPath>
</defs>
</svg>
