<svg width="71" height="54" viewBox="0 0 71 54" fill="none" xmlns="http://www.w3.org/2000/svg">
<path fill-rule="evenodd" clip-rule="evenodd" d="M20.5037 48.4998C20.5037 47.8368 20.7671 47.2009 21.2359 46.7321C21.7047 46.2633 22.3406 45.9999 23.0036 45.9999H68.0016C68.6646 45.9999 69.3004 46.2633 69.7693 46.7321C70.2381 47.2009 70.5015 47.8368 70.5015 48.4998C70.5015 49.1628 70.2381 49.7986 69.7693 50.2675C69.3004 50.7363 68.6646 50.9997 68.0016 50.9997H23.0036C22.3406 50.9997 21.7047 50.7363 21.2359 50.2675C20.7671 49.7986 20.5037 49.1628 20.5037 48.4998ZM20.5037 28.5007C20.5037 27.8377 20.7671 27.2018 21.2359 26.733C21.7047 26.2642 22.3406 26.0008 23.0036 26.0008H68.0016C68.6646 26.0008 69.3004 26.2642 69.7693 26.733C70.2381 27.2018 70.5015 27.8377 70.5015 28.5007C70.5015 29.1637 70.2381 29.7995 69.7693 30.2684C69.3004 30.7372 68.6646 31.0006 68.0016 31.0006H23.0036C22.3406 31.0006 21.7047 30.7372 21.2359 30.2684C20.7671 29.7995 20.5037 29.1637 20.5037 28.5007ZM20.5037 8.50157C20.5037 7.83856 20.7671 7.2027 21.2359 6.73388C21.7047 6.26506 22.3406 6.00168 23.0036 6.00168H68.0016C68.6646 6.00168 69.3004 6.26506 69.7693 6.73388C70.2381 7.2027 70.5015 7.83856 70.5015 8.50157C70.5015 9.16458 70.2381 9.80044 69.7693 10.2693C69.3004 10.7381 68.6646 11.0015 68.0016 11.0015H23.0036C22.3406 11.0015 21.7047 10.7381 21.2359 10.2693C20.7671 9.80044 20.5037 9.16458 20.5037 8.50157ZM14.774 1.73187C15.0068 1.96409 15.1915 2.23996 15.3175 2.54367C15.4435 2.84738 15.5084 3.17297 15.5084 3.50179C15.5084 3.83062 15.4435 4.15621 15.3175 4.45992C15.1915 4.76363 15.0068 5.0395 14.774 5.27171L7.27432 12.7714C7.0421 13.0042 6.76623 13.1889 6.46252 13.3149C6.15881 13.4409 5.83322 13.5058 5.5044 13.5058C5.17558 13.5058 4.84998 13.4409 4.54627 13.3149C4.24256 13.1889 3.9667 13.0042 3.73448 12.7714L1.23459 10.2715C1.00216 10.0391 0.817787 9.76313 0.691998 9.45944C0.566208 9.15576 0.501465 8.83027 0.501465 8.50157C0.501465 8.17286 0.566208 7.84738 0.691998 7.5437C0.817787 7.24001 1.00216 6.96408 1.23459 6.73165C1.46702 6.49922 1.74295 6.31485 2.04664 6.18906C2.35032 6.06327 2.67581 5.99852 3.00451 5.99852C3.33321 5.99852 3.6587 6.06327 3.96238 6.18906C4.26607 6.31485 4.542 6.49922 4.77443 6.73165L5.5044 7.46662L11.2341 1.73187C11.4664 1.49907 11.7422 1.31436 12.0459 1.18833C12.3496 1.06231 12.6752 0.997437 13.0041 0.997437C13.3329 0.997437 13.6585 1.06231 13.9622 1.18833C14.2659 1.31436 14.5418 1.49907 14.774 1.73187ZM14.774 21.731C15.0068 21.9632 15.1915 22.2391 15.3175 22.5428C15.4435 22.8465 15.5084 23.1721 15.5084 23.5009C15.5084 23.8297 15.4435 24.1553 15.3175 24.459C15.1915 24.7627 15.0068 25.0386 14.774 25.2708L7.27432 32.7705C7.0421 33.0033 6.76623 33.188 6.46252 33.314C6.15881 33.44 5.83322 33.5049 5.5044 33.5049C5.17558 33.5049 4.84998 33.44 4.54627 33.314C4.24256 33.188 3.9667 33.0033 3.73448 32.7705L1.23459 30.2706C0.765178 29.8012 0.501465 29.1645 0.501465 28.5007C0.501465 27.8368 0.765178 27.2002 1.23459 26.7308C1.704 26.2613 2.34066 25.9976 3.00451 25.9976C3.66836 25.9976 4.30502 26.2613 4.77443 26.7308L5.5044 27.4657L11.2341 21.731C11.4664 21.4982 11.7422 21.3135 12.0459 21.1874C12.3496 21.0614 12.6752 20.9965 13.0041 20.9965C13.3329 20.9965 13.6585 21.0614 13.9622 21.1874C14.2659 21.3135 14.5418 21.4982 14.774 21.731ZM14.774 41.7301C15.0068 41.9623 15.1915 42.2382 15.3175 42.5419C15.4435 42.8456 15.5084 43.1712 15.5084 43.5C15.5084 43.8288 15.4435 44.1544 15.3175 44.4581C15.1915 44.7618 15.0068 45.0377 14.774 45.2699L7.27432 52.7696C7.0421 53.0024 6.76623 53.1871 6.46252 53.3131C6.15881 53.4391 5.83322 53.504 5.5044 53.504C5.17558 53.504 4.84998 53.4391 4.54627 53.3131C4.24256 53.1871 3.9667 53.0024 3.73448 52.7696L1.23459 50.2697C0.765178 49.8003 0.501465 49.1636 0.501465 48.4998C0.501465 47.8359 0.765178 47.1993 1.23459 46.7299C1.704 46.2604 2.34066 45.9967 3.00451 45.9967C3.66836 45.9967 4.30502 46.2604 4.77443 46.7299L5.5044 47.4648L11.2341 41.7301C11.4664 41.4973 11.7422 41.3126 12.0459 41.1865C12.3496 41.0605 12.6752 40.9956 13.0041 40.9956C13.3329 40.9956 13.6585 41.0605 13.9622 41.1865C14.2659 41.3126 14.5418 41.4973 14.774 41.7301Z" fill="#007F00"/>
</svg>
