<svg width="111" height="39" viewBox="0 0 111 39" fill="none" xmlns="http://www.w3.org/2000/svg">
<path d="M17.8352 23.1282C17.462 22.6951 17.1021 22.2952 16.7756 21.9287C16.4557 22.3152 16.0959 22.7151 15.716 23.1282C13.4369 25.6672 10.3049 29.2058 10.3049 31.958C10.2982 33.6374 10.9912 35.2434 12.2041 36.3963C13.4303 37.5824 15.0696 38.2488 16.7756 38.2422C18.4816 38.2555 20.1276 37.5891 21.3471 36.3963C22.5533 35.2367 23.2397 33.6307 23.2464 31.958C23.253 29.1991 20.1143 25.6872 17.8352 23.1282ZM16.8556 36.8094C15.5494 36.8227 14.2966 36.3229 13.357 35.4166C12.444 34.537 11.9309 33.3241 11.9242 32.058C11.8976 31.7248 12.3041 31.4915 12.6439 31.7048C12.7505 31.7781 12.8105 31.8981 12.8172 32.0313C12.8105 33.0776 13.2304 34.0838 13.9834 34.8169C14.7431 35.5499 15.7627 35.9564 16.8156 35.9498C17.0622 35.9431 17.2621 36.1364 17.2621 36.3829C17.2621 36.4562 17.2488 36.5295 17.2154 36.5962C17.1488 36.7228 17.0088 36.8094 16.8556 36.8094Z" fill="white"/>
<path d="M27.9444 30.0521H24.9456C24.1726 30.0521 23.5462 29.4257 23.5462 28.6526C23.5462 27.8796 24.1726 27.2532 24.9456 27.2532H27.9444C28.4776 27.2532 28.9107 26.8467 28.9107 26.3536C28.9107 26.087 28.7908 25.8404 28.5909 25.6738L28.5842 25.6672C26.2118 23.7213 24.8524 20.8691 24.8524 17.8503V14.1851C24.8524 10.34 21.8802 7.02794 17.9351 6.47483L16.7756 6.31489L15.616 6.47483C11.671 7.02794 8.69881 10.34 8.69881 14.1851V17.8503C8.69881 20.8691 7.33269 23.7279 4.95364 25.6805C4.75372 25.8404 4.64043 26.0937 4.64043 26.3469C4.64043 26.84 5.07359 27.2465 5.60671 27.2465H8.63217C9.4052 27.2465 10.0316 27.8729 10.0316 28.646C10.0316 29.419 9.4052 30.0454 8.63217 30.0454H5.60671C3.52755 30.0454 1.84155 28.3861 1.84155 26.3469C1.84155 25.2473 2.32803 24.2144 3.18102 23.5214C4.90699 22.1019 5.89993 20.0361 5.89993 17.8503V14.1851C5.89993 11.6128 6.85955 9.14043 8.60552 7.20787C10.0449 5.60851 11.9375 4.47563 14.0233 3.94251V3.66928C14.0233 2.17654 15.2562 0.957031 16.7756 0.957031C18.295 0.957031 19.5278 2.17654 19.5278 3.66928V3.94251C21.6136 4.47563 23.5062 5.60851 24.9456 7.20787C26.6916 9.14043 27.6512 11.6194 27.6512 14.1851V17.8503C27.6512 20.0294 28.6375 22.0953 30.3568 23.5014C31.2165 24.2011 31.7096 25.2407 31.7096 26.3536C31.7096 28.3927 30.0236 30.0521 27.9444 30.0521Z" fill="white"/>
<path d="M31.8962 16.1712C31.1498 16.1712 30.5434 15.5848 30.5434 14.8584C30.5434 11.1732 29.064 7.70795 26.3784 5.09566C25.8653 4.60253 25.8453 3.78952 26.3384 3.27639C26.3517 3.26306 26.3651 3.24974 26.3784 3.23641C26.9115 2.72328 27.7578 2.72328 28.291 3.23641C31.4897 6.34183 33.249 10.4668 33.249 14.8584C33.2557 15.5848 32.6492 16.1712 31.8962 16.1712Z" fill="white"/>
<path d="M0.19555 14.8584C0.19555 10.4668 1.95485 6.34183 5.15356 3.23641C5.68668 2.72328 6.53301 2.72328 7.06613 3.23641C7.07946 3.24974 7.09279 3.26306 7.10612 3.27639C7.59925 3.78952 7.57926 4.60253 7.06613 5.09566C4.38054 7.70795 2.90113 11.1732 2.90113 14.8584C2.90113 15.5848 2.29471 16.1712 1.54834 16.1712C0.79531 16.1712 0.188886 15.5848 0.19555 14.8584Z" fill="white"/>
<path d="M46.7036 14.5915H46.6036C46.5103 14.858 46.3837 15.1113 46.2305 15.3512C46.0772 15.5911 45.8773 15.8043 45.6374 15.9909C45.3975 16.1775 45.1109 16.3241 44.7844 16.4307C44.4578 16.5374 44.078 16.5907 43.6582 16.5907C42.5786 16.5907 41.7589 16.2375 41.2058 15.5244C40.6527 14.8114 40.3728 13.7918 40.3728 12.459V5.86164H43.3316V12.1924C43.3316 12.8322 43.4449 13.3253 43.6715 13.6719C43.8981 14.0184 44.2846 14.1916 44.831 14.1916C45.0576 14.1916 45.2842 14.1583 45.5107 14.0917C45.7373 14.025 45.9372 13.9317 46.1105 13.8051C46.2838 13.6785 46.4237 13.5252 46.5303 13.3387C46.637 13.1521 46.6903 12.9321 46.6903 12.6789V5.85498H49.6491V16.3508H46.6903V14.5915H46.7036Z" fill="white"/>
<path d="M52.4213 16.3511V5.8553H55.3802V8.13439H55.4801C55.5334 7.84117 55.6267 7.56128 55.76 7.28139C55.8933 7.00817 56.0732 6.76827 56.2931 6.54835C56.513 6.33511 56.7729 6.16851 57.0861 6.03523C57.3927 5.90861 57.7526 5.84863 58.1657 5.84863H58.6855V8.60753H57.9458C57.0795 8.60753 56.4397 8.72082 56.0132 8.9474C55.5934 9.17397 55.3868 9.59381 55.3868 10.2069V16.3444H52.4213V16.3511Z" fill="white"/>
<path d="M64.6564 16.5907C63.8834 16.5907 63.1903 16.4641 62.5905 16.2108C61.9841 15.9576 61.471 15.5911 61.0511 15.1113C60.6313 14.6315 60.3048 14.0517 60.0782 13.372C59.8516 12.6922 59.7383 11.9325 59.7383 11.0929C59.7383 10.2532 59.8516 9.49352 60.0782 8.81379C60.3048 8.13406 60.6313 7.56095 61.0511 7.08114C61.471 6.608 61.9841 6.24814 62.5905 5.98825C63.197 5.73501 63.8834 5.6084 64.6564 5.6084C65.4294 5.6084 66.1158 5.73501 66.7222 5.98825C67.3286 6.24148 67.8418 6.608 68.2616 7.08114C68.6814 7.55429 69.0013 8.13406 69.2279 8.81379C69.4545 9.49352 69.5677 10.2532 69.5677 11.0929C69.5677 11.9325 69.4545 12.6922 69.2279 13.372C69.0013 14.0517 68.6748 14.6315 68.2616 15.1113C67.8418 15.5911 67.3286 15.9576 66.7222 16.2108C66.1158 16.4641 65.4294 16.5907 64.6564 16.5907ZM64.6564 14.2516C65.2428 14.2516 65.696 14.0717 66.0158 13.7118C66.3357 13.352 66.4956 12.8388 66.4956 12.1724V10.0333C66.4956 9.3669 66.3357 8.85377 66.0158 8.49391C65.696 8.13406 65.2428 7.95413 64.6564 7.95413C64.0699 7.95413 63.6168 8.13406 63.2969 8.49391C62.977 8.85377 62.8171 9.3669 62.8171 10.0333V12.1724C62.8171 12.8388 62.977 13.352 63.2969 13.7118C63.6168 14.0717 64.0699 14.2516 64.6564 14.2516Z" fill="white"/>
<path d="M71.6736 16.3509V5.85514H74.6325V7.63443H74.7524C74.939 7.07465 75.2589 6.60151 75.712 6.20167C76.1652 5.80849 76.7849 5.61523 77.5713 5.61523C78.291 5.61523 78.9041 5.79516 79.4105 6.15502C79.917 6.51487 80.2835 7.04133 80.5101 7.73439H80.5701C80.6634 7.44117 80.8033 7.16795 81.0032 6.90139C81.1965 6.64149 81.4297 6.42158 81.7096 6.23499C81.9895 6.0484 82.3027 5.90179 82.6493 5.78183C82.9958 5.66855 83.369 5.61523 83.7688 5.61523C84.7817 5.61523 85.5548 5.97509 86.1012 6.6948C86.641 7.41452 86.9075 8.44077 86.9075 9.77357V16.3509H83.9487V10.0135C83.9487 8.68068 83.4689 8.01428 82.5093 8.01428C82.0695 8.01428 81.6696 8.14089 81.3098 8.39412C80.9499 8.64736 80.77 9.03387 80.77 9.55366V16.3509H77.8112V10.0135C77.8112 8.68068 77.3314 8.01428 76.3718 8.01428C76.1585 8.01428 75.9453 8.04093 75.7387 8.10091C75.5321 8.16089 75.3455 8.26084 75.1789 8.38746C75.0123 8.52074 74.879 8.68734 74.7791 8.8806C74.6791 9.07385 74.6258 9.30043 74.6258 9.547V16.3443H71.6736V16.3509Z" fill="white"/>
<path d="M93.9247 16.5909C93.1251 16.5909 92.412 16.4642 91.7856 16.2043C91.1592 15.9444 90.626 15.5779 90.1995 15.1048C89.7664 14.6316 89.4398 14.0519 89.2199 13.3721C89 12.6924 88.8867 11.9327 88.8867 11.093C88.8867 10.2667 88.9933 9.52034 89.2066 8.84061C89.4198 8.16755 89.7397 7.58778 90.1596 7.11464C90.5794 6.63483 91.0925 6.26164 91.7123 6.00175C92.3254 5.74185 93.0251 5.61523 93.8115 5.61523C94.6778 5.61523 95.4242 5.76184 96.0439 6.05506C96.6637 6.34827 97.1701 6.74145 97.5633 7.23459C97.9565 7.72773 98.243 8.30083 98.423 8.94057C98.6029 9.58698 98.6895 10.2667 98.6895 10.9731V11.8527H91.9522V12.0127C91.9522 12.6991 92.1388 13.2455 92.512 13.6454C92.8852 14.0519 93.4716 14.2518 94.2713 14.2518C94.8844 14.2518 95.3842 14.1318 95.7707 13.8853C96.1572 13.6387 96.5171 13.3455 96.8503 13.0056L98.3297 14.8515C97.8632 15.398 97.2501 15.8245 96.4971 16.1377C95.7374 16.4376 94.8844 16.5909 93.9247 16.5909ZM93.8648 7.79436C93.265 7.79436 92.7985 7.99428 92.452 8.38746C92.1121 8.78064 91.9455 9.30709 91.9455 9.9535V10.1134H95.6241V9.93351C95.6241 9.29377 95.4775 8.78064 95.1909 8.3808C94.9044 7.98762 94.4645 7.79436 93.8648 7.79436Z" fill="white"/>
<path d="M107.219 14.5916H107.119C107.039 14.8715 106.913 15.1381 106.74 15.3846C106.566 15.6312 106.353 15.8444 106.113 16.0244C105.867 16.2043 105.587 16.3442 105.274 16.4442C104.96 16.5442 104.634 16.5975 104.307 16.5975C102.974 16.5975 101.968 16.131 101.288 15.1914C100.609 14.2517 100.269 12.8923 100.269 11.0997C100.269 9.31372 100.609 7.95426 101.288 7.0213C101.968 6.08834 102.974 5.62186 104.307 5.62186C104.987 5.62186 105.587 5.80845 106.12 6.18163C106.646 6.55482 106.98 7.03462 107.126 7.62106H107.226V1.56348H110.185V16.3576H107.219V14.5916ZM105.28 14.1918C105.84 14.1918 106.3 14.0585 106.666 13.7853C107.033 13.512 107.219 13.1322 107.219 12.6524V9.55362C107.219 9.07381 107.033 8.70063 106.666 8.42074C106.3 8.14751 105.833 8.01423 105.28 8.01423C104.72 8.01423 104.254 8.21415 103.887 8.60067C103.521 8.99384 103.334 9.52696 103.334 10.1867V12.006C103.334 12.6724 103.514 13.2055 103.887 13.592C104.254 13.9918 104.72 14.1918 105.28 14.1918Z" fill="white"/>
<path d="M44.0647 34.25C43.0517 34.25 42.1987 34.0834 41.5057 33.7636C40.8126 33.437 40.1929 32.9772 39.6464 32.3774L41.3857 30.6181C41.7589 31.0313 42.1721 31.3578 42.6252 31.5978C43.0784 31.8377 43.5915 31.9576 44.1646 31.9576C44.751 31.9576 45.1576 31.871 45.3841 31.691C45.6107 31.5111 45.724 31.2712 45.724 30.958C45.724 30.4649 45.3708 30.1717 44.6644 30.0784L43.5249 29.9384C41.1658 29.6452 39.9863 28.5656 39.9863 26.6997C39.9863 26.1932 40.0796 25.7334 40.2795 25.3069C40.4728 24.8871 40.746 24.5272 41.0992 24.2274C41.4524 23.9275 41.8789 23.6942 42.3787 23.5276C42.8785 23.361 43.4382 23.2744 44.0713 23.2744C44.6178 23.2744 45.0976 23.3144 45.5241 23.381C45.9439 23.4543 46.3171 23.561 46.6436 23.7009C46.9702 23.8409 47.27 24.0141 47.5433 24.2207C47.8165 24.4273 48.083 24.6605 48.3496 24.9071L46.6436 26.6531C46.3104 26.3199 45.9372 26.06 45.5174 25.8667C45.0976 25.6735 44.6644 25.5802 44.2246 25.5802C43.7181 25.5802 43.3583 25.6601 43.145 25.8201C42.9318 25.98 42.8252 26.1932 42.8252 26.4598C42.8252 26.7397 42.8985 26.9596 43.0584 27.1129C43.2117 27.2662 43.4982 27.3794 43.9247 27.4461L45.1042 27.606C47.41 27.9126 48.5629 28.9655 48.5629 30.7648C48.5629 31.2712 48.4562 31.7377 48.243 32.1642C48.0297 32.5907 47.7232 32.9639 47.3367 33.2771C46.9435 33.5903 46.4704 33.8369 45.9172 34.0101C45.3575 34.1634 44.7444 34.25 44.0647 34.25Z" fill="white"/>
<path d="M54.9603 34.25C54.1606 34.25 53.4475 34.1234 52.8211 33.8635C52.1947 33.6036 51.6616 33.2371 51.2351 32.764C50.8019 32.2908 50.4754 31.711 50.2555 31.0313C50.0356 30.3516 49.9223 29.5919 49.9223 28.7522C49.9223 27.9259 50.0289 27.1795 50.2422 26.4998C50.4554 25.8267 50.7686 25.247 51.1951 24.7738C51.6149 24.294 52.1281 23.9208 52.7478 23.6609C53.3609 23.401 54.0606 23.2744 54.847 23.2744C55.7133 23.2744 56.453 23.421 57.0727 23.7142C57.6925 24.0075 58.199 24.4006 58.5921 24.8938C58.9853 25.3869 59.2718 25.96 59.4518 26.5998C59.6317 27.2462 59.7183 27.9259 59.7183 28.6323V29.5119H52.9811V29.6719C52.9811 30.3582 53.1677 30.9047 53.5408 31.3045C53.914 31.711 54.5004 31.911 55.3001 31.911C55.9132 31.911 56.413 31.791 56.7995 31.5444C57.186 31.2979 57.5459 31.0047 57.8791 30.6648L59.3585 32.5107C58.892 33.0572 58.2789 33.4837 57.5259 33.7969C56.7729 34.0968 55.9199 34.25 54.9603 34.25ZM54.9003 25.4535C54.3005 25.4535 53.834 25.6535 53.4942 26.0466C53.1543 26.4398 52.9877 26.9663 52.9877 27.6127V27.7726H56.6662V27.5927C56.6662 26.9529 56.5196 26.4398 56.2331 26.04C55.9399 25.6468 55.5 25.4535 54.9003 25.4535Z" fill="white"/>
<path d="M61.8176 34.0103V23.5145H64.7763V25.7936H64.8763C64.9296 25.5004 65.0229 25.2205 65.1562 24.9406C65.2895 24.6674 65.4694 24.4274 65.6893 24.2075C65.9092 23.9943 66.1691 23.8277 66.4756 23.6944C66.7822 23.5678 67.142 23.5078 67.5552 23.5078H68.075V26.2667H67.3353C66.469 26.2667 65.8226 26.38 65.4028 26.6066C64.9829 26.8332 64.7697 27.253 64.7697 27.8661V34.0036H61.8176V34.0103Z" fill="white"/>
<path d="M72.2733 34.0105L68.8347 23.5146H71.7536L73.053 27.753L74.0326 31.5514H74.1926L75.1722 27.753L76.4317 23.5146H79.2306L75.7919 34.0105H72.2733Z" fill="white"/>
<path d="M82.2694 22.3951C81.6696 22.3951 81.2297 22.2618 80.9565 21.9819C80.6833 21.7087 80.5433 21.3622 80.5433 20.929V20.4892C80.5433 20.0627 80.6766 19.7162 80.9565 19.4363C81.2297 19.1631 81.6696 19.0298 82.2694 19.0298C82.8691 19.0298 83.3023 19.1697 83.5755 19.4363C83.8488 19.7095 83.9887 20.0627 83.9887 20.4892V20.929C83.9887 21.3555 83.8488 21.7087 83.5755 21.9819C83.3023 22.2552 82.8691 22.3951 82.2694 22.3951ZM80.7899 23.5147H83.7488V34.0105H80.7899V23.5147Z" fill="white"/>
<path d="M90.746 34.25C89.9596 34.25 89.2599 34.1234 88.6468 33.8635C88.0337 33.6036 87.5206 33.2371 87.1074 32.764C86.6943 32.2908 86.3811 31.711 86.1678 31.0313C85.9546 30.3516 85.848 29.5919 85.848 28.7522C85.848 27.9126 85.9546 27.1595 86.1678 26.4865C86.3811 25.8134 86.6943 25.2336 87.1074 24.7538C87.5206 24.274 88.0337 23.9075 88.6468 23.6543C89.2599 23.401 89.9596 23.2744 90.746 23.2744C91.8122 23.2744 92.6985 23.5143 93.4115 23.9941C94.1246 24.4739 94.631 25.147 94.9442 26.0133L92.5452 27.0529C92.4519 26.6531 92.2587 26.3132 91.9655 26.0333C91.6722 25.7534 91.2657 25.6135 90.746 25.6135C90.1462 25.6135 89.6931 25.8134 89.3865 26.1999C89.08 26.5931 88.9267 27.1262 88.9267 27.7926V29.7518C88.9267 30.4182 89.08 30.9447 89.3865 31.3312C89.6931 31.7177 90.1462 31.911 90.746 31.911C91.2791 31.911 91.6989 31.771 92.0121 31.4778C92.3253 31.1912 92.5519 30.8181 92.7052 30.3449L95.0042 31.3445C94.6577 32.3441 94.1179 33.0772 93.3915 33.5436C92.6652 34.0168 91.7855 34.25 90.746 34.25Z" fill="white"/>
<path d="M101.122 34.25C100.322 34.25 99.6091 34.1234 98.9826 33.8635C98.3562 33.6036 97.8231 33.2371 97.3966 32.764C96.9634 32.2908 96.6369 31.711 96.417 31.0313C96.1971 30.3516 96.0838 29.5919 96.0838 28.7522C96.0838 27.9259 96.1904 27.1795 96.4037 26.4998C96.6169 25.8267 96.9368 25.247 97.3566 24.7738C97.7765 24.294 98.2896 23.9208 98.9093 23.6609C99.5224 23.401 100.222 23.2744 101.008 23.2744C101.875 23.2744 102.621 23.421 103.241 23.7142C103.861 24.0075 104.367 24.4006 104.76 24.8938C105.154 25.3869 105.44 25.96 105.62 26.5998C105.8 27.2462 105.887 27.9259 105.887 28.6323V29.5119H99.1492V29.6719C99.1492 30.3582 99.3358 30.9047 99.709 31.3045C100.082 31.711 100.669 31.911 101.468 31.911C102.081 31.911 102.581 31.791 102.968 31.5444C103.354 31.2979 103.714 31.0047 104.047 30.6648L105.527 32.5107C105.06 33.0572 104.447 33.4837 103.694 33.7969C102.934 34.0968 102.081 34.25 101.122 34.25ZM101.062 25.4535C100.462 25.4535 99.9956 25.6535 99.649 26.0466C99.3092 26.4398 99.1426 26.9663 99.1426 27.6127V27.7726H102.821V27.5927C102.821 26.9529 102.674 26.4398 102.388 26.04C102.101 25.6468 101.662 25.4535 101.062 25.4535Z" fill="white"/>
</svg>
