<svg width="49" height="48" viewBox="0 0 49 48" fill="none" xmlns="http://www.w3.org/2000/svg">
<path fill-rule="evenodd" clip-rule="evenodd" d="M16.9311 33.1405C16.9311 32.7617 17.0816 32.3984 17.3494 32.1305C17.6173 31.8626 17.9807 31.7121 18.3595 31.7121H44.0716C44.4505 31.7121 44.8138 31.8626 45.0817 32.1305C45.3496 32.3984 45.5001 32.7617 45.5001 33.1405C45.5001 33.5194 45.3496 33.8827 45.0817 34.1506C44.8138 34.4185 44.4505 34.569 44.0716 34.569H18.3595C17.9807 34.569 17.6173 34.4185 17.3494 34.1506C17.0816 33.8827 16.9311 33.5194 16.9311 33.1405ZM16.9311 21.7129C16.9311 21.3341 17.0816 20.9708 17.3494 20.7029C17.6173 20.435 17.9807 20.2845 18.3595 20.2845H44.0716C44.4505 20.2845 44.8138 20.435 45.0817 20.7029C45.3496 20.9708 45.5001 21.3341 45.5001 21.7129C45.5001 22.0918 45.3496 22.4551 45.0817 22.723C44.8138 22.9909 44.4505 23.1414 44.0716 23.1414H18.3595C17.9807 23.1414 17.6173 22.9909 17.3494 22.723C17.0816 22.4551 16.9311 22.0918 16.9311 21.7129ZM16.9311 10.2853C16.9311 9.90649 17.0816 9.54316 17.3494 9.27527C17.6173 9.00739 17.9807 8.85689 18.3595 8.85689H44.0716C44.4505 8.85689 44.8138 9.00739 45.0817 9.27527C45.3496 9.54316 45.5001 9.90649 45.5001 10.2853C45.5001 10.6642 45.3496 11.0275 45.0817 11.2954C44.8138 11.5633 44.4505 11.7138 44.0716 11.7138H18.3595C17.9807 11.7138 17.6173 11.5633 17.3494 11.2954C17.0816 11.0275 16.9311 10.6642 16.9311 10.2853ZM13.657 6.4171C13.7901 6.54979 13.8956 6.70742 13.9676 6.88096C14.0396 7.0545 14.0767 7.24055 14.0767 7.42844C14.0767 7.61633 14.0396 7.80238 13.9676 7.97592C13.8956 8.14946 13.7901 8.30709 13.657 8.43978L9.3717 12.7251C9.239 12.8582 9.08137 12.9637 8.90783 13.0357C8.73429 13.1077 8.54824 13.1448 8.36035 13.1448C8.17246 13.1448 7.98642 13.1077 7.81287 13.0357C7.63933 12.9637 7.4817 12.8582 7.34901 12.7251L5.92056 11.2967C5.78775 11.1639 5.6824 11.0062 5.61052 10.8327C5.53864 10.6591 5.50165 10.4732 5.50165 10.2853C5.50165 10.0975 5.53864 9.91153 5.61052 9.73801C5.6824 9.56448 5.78775 9.40681 5.92056 9.274C6.05337 9.14119 6.21104 9.03584 6.38457 8.96396C6.55809 8.89208 6.74408 8.85509 6.9319 8.85509C7.11973 8.85509 7.30571 8.89208 7.47924 8.96396C7.65276 9.03584 7.81043 9.14119 7.94325 9.274L8.36035 9.69396L11.6344 6.4171C11.7671 6.28407 11.9247 6.17853 12.0982 6.10652C12.2718 6.0345 12.4578 5.99744 12.6457 5.99744C12.8336 5.99744 13.0196 6.0345 13.1932 6.10652C13.3667 6.17853 13.5244 6.28407 13.657 6.4171ZM13.657 17.8447C13.7901 17.9774 13.8956 18.135 13.9676 18.3086C14.0396 18.4821 14.0767 18.6682 14.0767 18.856C14.0767 19.0439 14.0396 19.23 13.9676 19.4035C13.8956 19.5771 13.7901 19.7347 13.657 19.8674L9.3717 24.1527C9.239 24.2858 9.08137 24.3913 8.90783 24.4633C8.73429 24.5353 8.54824 24.5724 8.36035 24.5724C8.17246 24.5724 7.98642 24.5353 7.81287 24.4633C7.63933 24.3913 7.4817 24.2858 7.34901 24.1527L5.92056 22.7243C5.65234 22.4561 5.50165 22.0923 5.50165 21.7129C5.50165 21.3336 5.65234 20.9698 5.92056 20.7016C6.18878 20.4334 6.55258 20.2827 6.9319 20.2827C7.31123 20.2827 7.67502 20.4334 7.94325 20.7016L8.36035 21.1216L11.6344 17.8447C11.7671 17.7117 11.9247 17.6061 12.0982 17.5341C12.2718 17.4621 12.4578 17.425 12.6457 17.425C12.8336 17.425 13.0196 17.4621 13.1932 17.5341C13.3667 17.6061 13.5244 17.7117 13.657 17.8447ZM13.657 29.2723C13.7901 29.405 13.8956 29.5626 13.9676 29.7362C14.0396 29.9097 14.0767 30.0958 14.0767 30.2836C14.0767 30.4715 14.0396 30.6576 13.9676 30.8311C13.8956 31.0047 13.7901 31.1623 13.657 31.295L9.3717 35.5803C9.239 35.7134 9.08137 35.8189 8.90783 35.8909C8.73429 35.9629 8.54824 36 8.36035 36C8.17246 36 7.98642 35.9629 7.81287 35.8909C7.63933 35.8189 7.4817 35.7134 7.34901 35.5803L5.92056 34.1519C5.65234 33.8837 5.50165 33.5199 5.50165 33.1405C5.50165 32.7612 5.65234 32.3974 5.92056 32.1292C6.18878 31.861 6.55258 31.7103 6.9319 31.7103C7.31123 31.7103 7.67502 31.861 7.94325 32.1292L8.36035 32.5492L11.6344 29.2723C11.7671 29.1393 11.9247 29.0337 12.0982 28.9617C12.2718 28.8897 12.4578 28.8526 12.6457 28.8526C12.8336 28.8526 13.0196 28.8897 13.1932 28.9617C13.3667 29.0337 13.5244 29.1393 13.657 29.2723Z" fill="#007F00"/>
</svg>
