<svg width="111" height="39" viewBox="0 0 111 39" fill="none" xmlns="http://www.w3.org/2000/svg">
<path d="M17.8353 23.1284C17.4621 22.6952 17.1022 22.2954 16.7757 21.9289C16.4558 22.3154 16.0959 22.7152 15.7161 23.1284C13.437 25.6674 10.3049 29.206 10.3049 31.9582C10.2983 33.6375 10.9913 35.2436 12.2042 36.3964C13.4303 37.5826 15.0697 38.249 16.7757 38.2424C18.4817 38.2557 20.1277 37.5893 21.3472 36.3964C22.5534 35.2369 23.2398 33.6309 23.2464 31.9582C23.2531 29.1993 20.1143 25.6874 17.8353 23.1284ZM16.8556 36.8096C15.5495 36.8229 14.2967 36.3231 13.357 35.4168C12.4441 34.5372 11.9309 33.3243 11.9243 32.0582C11.8976 31.725 12.3041 31.4917 12.644 31.705C12.7506 31.7783 12.8106 31.8982 12.8173 32.0315C12.8106 33.0777 13.2304 34.084 13.9835 34.8171C14.7432 35.5501 15.7627 35.9566 16.8157 35.9499C17.0622 35.9433 17.2621 36.1365 17.2621 36.3831C17.2621 36.4564 17.2488 36.5297 17.2155 36.5963C17.1489 36.723 17.0089 36.8096 16.8556 36.8096Z" fill="#001870"/>
<path d="M27.9445 30.0523H24.9457C24.1727 30.0523 23.5463 29.4258 23.5463 28.6528C23.5463 27.8798 24.1727 27.2534 24.9457 27.2534H27.9445C28.4776 27.2534 28.9108 26.8469 28.9108 26.3537C28.9108 26.0872 28.7908 25.8406 28.5909 25.674L28.5843 25.6674C26.2119 23.7215 24.8524 20.8693 24.8524 17.8505V14.1853C24.8524 10.3402 21.8803 7.02815 17.9352 6.47504L16.7756 6.3151L15.6161 6.47504C11.671 7.02815 8.69887 10.3402 8.69887 14.1853V17.8505C8.69887 20.8693 7.33275 23.7281 4.9537 25.6807C4.75378 25.8406 4.64049 26.0938 4.64049 26.3471C4.64049 26.8402 5.07365 27.2467 5.60677 27.2467H8.63223C9.40526 27.2467 10.0317 27.8731 10.0317 28.6462C10.0317 29.4192 9.40526 30.0456 8.63223 30.0456H5.60677C3.52761 30.0456 1.84161 28.3863 1.84161 26.3471C1.84161 25.2475 2.32809 24.2146 3.18108 23.5215C4.90706 22.1021 5.89999 20.0363 5.89999 17.8505V14.1853C5.89999 11.613 6.85961 9.14063 8.60558 7.20808C10.045 5.60872 11.9376 4.47584 14.0234 3.94272V3.66949C14.0234 2.17676 15.2562 0.957245 16.7756 0.957245C18.295 0.957245 19.5279 2.17676 19.5279 3.66949V3.94272C21.6137 4.47584 23.5063 5.60872 24.9457 7.20808C26.6917 9.14063 27.6513 11.6196 27.6513 14.1853V17.8505C27.6513 20.0296 28.6376 22.0954 30.3569 23.5016C31.2165 24.2013 31.7097 25.2409 31.7097 26.3537C31.7097 28.3929 30.0237 30.0523 27.9445 30.0523Z" fill="#007F00"/>
<path d="M31.8964 16.1711C31.15 16.1711 30.5436 15.5847 30.5436 14.8583C30.5436 11.1731 29.0642 7.70785 26.3786 5.09556C25.8654 4.60242 25.8454 3.78941 26.3386 3.27629C26.3519 3.26296 26.3652 3.24963 26.3786 3.2363C26.9117 2.72317 27.758 2.72317 28.2912 3.2363C31.4899 6.34173 33.2492 10.4667 33.2492 14.8583C33.2559 15.5847 32.6495 16.1711 31.8964 16.1711Z" fill="#007F00"/>
<path d="M0.195611 14.8583C0.195611 10.4667 1.9549 6.34173 5.15362 3.2363C5.68674 2.72317 6.53307 2.72317 7.06618 3.2363C7.07951 3.24963 7.09284 3.26296 7.10617 3.27629C7.5993 3.78941 7.57931 4.60242 7.06618 5.09556C4.3806 7.70785 2.90119 11.1731 2.90119 14.8583C2.90119 15.5847 2.29477 16.1711 1.5484 16.1711C0.79537 16.1711 0.188947 15.5847 0.195611 14.8583Z" fill="#007F00"/>
<path d="M46.7037 14.5918H46.6038C46.5105 14.8583 46.3838 15.1116 46.2306 15.3515C46.0773 15.5914 45.8774 15.8046 45.6375 15.9912C45.3976 16.1778 45.111 16.3244 44.7845 16.431C44.458 16.5377 44.0781 16.591 43.6583 16.591C42.5787 16.591 41.759 16.2378 41.2059 15.5247C40.6528 14.8117 40.3729 13.7921 40.3729 12.4593V5.86193H43.3317V12.1927C43.3317 12.8325 43.445 13.3256 43.6716 13.6721C43.8982 14.0187 44.2847 14.1919 44.8311 14.1919C45.0577 14.1919 45.2843 14.1586 45.5109 14.092C45.7374 14.0253 45.9374 13.932 46.1106 13.8054C46.2839 13.6788 46.4238 13.5255 46.5305 13.3389C46.6371 13.1524 46.6904 12.9324 46.6904 12.6792V5.85527H49.6492V16.3511H46.6904V14.5918H46.7037Z" fill="#001870"/>
<path d="M52.4214 16.3511V5.85528H55.3803V8.13438H55.4803C55.5336 7.84116 55.6269 7.56127 55.7602 7.28138C55.8934 7.00816 56.0734 6.76825 56.2933 6.54834C56.5132 6.33509 56.7731 6.16849 57.0863 6.03521C57.3929 5.90859 57.7527 5.84862 58.1659 5.84862H58.6857V8.60752H57.946C57.0797 8.60752 56.4399 8.72081 56.0134 8.94738C55.5936 9.17396 55.387 9.59379 55.387 10.2069V16.3444H52.4214V16.3511Z" fill="#001870"/>
<path d="M64.6565 16.5909C63.8835 16.5909 63.1904 16.4643 62.5907 16.2111C61.9842 15.9578 61.4711 15.5913 61.0513 15.1115C60.6314 14.6317 60.3049 14.0519 60.0783 13.3722C59.8518 12.6925 59.7385 11.9328 59.7385 11.0931C59.7385 10.2535 59.8518 9.49378 60.0783 8.81405C60.3049 8.13432 60.6314 7.56122 61.0513 7.08141C61.4711 6.60827 61.9842 6.24842 62.5907 5.98852C63.1971 5.73529 63.8835 5.60867 64.6565 5.60867C65.4295 5.60867 66.1159 5.73529 66.7223 5.98852C67.3288 6.24175 67.8419 6.60827 68.2617 7.08141C68.6816 7.55456 69.0014 8.13432 69.228 8.81405C69.4546 9.49378 69.5679 10.2535 69.5679 11.0931C69.5679 11.9328 69.4546 12.6925 69.228 13.3722C69.0014 14.0519 68.6749 14.6317 68.2617 15.1115C67.8419 15.5913 67.3288 15.9578 66.7223 16.2111C66.1159 16.4643 65.4295 16.5909 64.6565 16.5909ZM64.6565 14.2519C65.2429 14.2519 65.6961 14.0719 66.0159 13.7121C66.3358 13.3522 66.4958 12.8391 66.4958 12.1727V10.0336C66.4958 9.36716 66.3358 8.85403 66.0159 8.49418C65.6961 8.13432 65.2429 7.9544 64.6565 7.9544C64.0701 7.9544 63.6169 8.13432 63.297 8.49418C62.9772 8.85403 62.8172 9.36716 62.8172 10.0336V12.1727C62.8172 12.8391 62.9772 13.3522 63.297 13.7121C63.6169 14.0719 64.0701 14.2519 64.6565 14.2519Z" fill="#001870"/>
<path d="M71.6739 16.3511V5.85531H74.6327V7.6346H74.7527C74.9393 7.07482 75.2591 6.60168 75.7123 6.20184C76.1654 5.80866 76.7852 5.6154 77.5715 5.6154C78.2912 5.6154 78.9043 5.79533 79.4108 6.15519C79.9173 6.51504 80.2838 7.0415 80.5104 7.73456H80.5703C80.6636 7.44134 80.8036 7.16812 81.0035 6.90156C81.1967 6.64166 81.43 6.42175 81.7099 6.23516C81.9898 6.04856 82.303 5.90195 82.6495 5.782C82.996 5.66871 83.3692 5.6154 83.7691 5.6154C84.782 5.6154 85.555 5.97526 86.1015 6.69497C86.6412 7.41469 86.9078 8.44094 86.9078 9.77375V16.3511H83.949V10.0137C83.949 8.68085 83.4692 8.01445 82.5096 8.01445C82.0697 8.01445 81.6699 8.14106 81.31 8.3943C80.9502 8.64753 80.7703 9.03404 80.7703 9.55383V16.3511H77.8114V10.0137C77.8114 8.68085 77.3316 8.01445 76.372 8.01445C76.1588 8.01445 75.9455 8.0411 75.7389 8.10108C75.5323 8.16106 75.3458 8.26102 75.1792 8.38763C75.0126 8.52091 74.8793 8.68751 74.7793 8.88077C74.6794 9.07403 74.626 9.3006 74.626 9.54717V16.3445H71.6739V16.3511Z" fill="#001870"/>
<path d="M93.9248 16.591C93.1251 16.591 92.412 16.4644 91.7856 16.2045C91.1592 15.9446 90.6261 15.5781 90.1995 15.1049C89.7664 14.6318 89.4398 14.052 89.2199 13.3723C89 12.6926 88.8867 11.9329 88.8867 11.0932C88.8867 10.2669 88.9933 9.5205 89.2066 8.84077C89.4198 8.16771 89.7397 7.58794 90.1596 7.1148C90.5794 6.63499 91.0925 6.26181 91.7123 6.00191C92.3254 5.74202 93.0251 5.6154 93.8115 5.6154C94.6778 5.6154 95.4242 5.76201 96.044 6.05522C96.6638 6.34844 97.1702 6.74162 97.5634 7.23475C97.9566 7.72789 98.2431 8.30099 98.4231 8.94073C98.603 9.58714 98.6896 10.2669 98.6896 10.9732V11.8529H91.9522V12.0128C91.9522 12.6992 92.1388 13.2457 92.512 13.6455C92.8852 14.052 93.4716 14.2519 94.2713 14.2519C94.8844 14.2519 95.3842 14.132 95.7708 13.8854C96.1573 13.6388 96.5171 13.3456 96.8503 13.0058L98.3298 14.8517C97.8633 15.3981 97.2502 15.8246 96.4971 16.1378C95.7374 16.4377 94.8844 16.591 93.9248 16.591ZM93.8648 7.79453C93.265 7.79453 92.7986 7.99444 92.452 8.38762C92.1122 8.7808 91.9456 9.30725 91.9456 9.95366V10.1136H95.6241V9.93367C95.6241 9.29392 95.4775 8.7808 95.191 8.38096C94.9044 7.98778 94.4646 7.79453 93.8648 7.79453Z" fill="#001870"/>
<path d="M107.22 14.5918H107.12C107.04 14.8717 106.913 15.1382 106.74 15.3848C106.566 15.6314 106.353 15.8446 106.113 16.0245C105.867 16.2045 105.587 16.3444 105.274 16.4444C104.96 16.5443 104.634 16.5976 104.307 16.5976C102.975 16.5976 101.968 16.1312 101.288 15.1915C100.609 14.2519 100.269 12.8925 100.269 11.0998C100.269 9.31388 100.609 7.95443 101.288 7.02146C101.968 6.0885 102.975 5.62202 104.307 5.62202C104.987 5.62202 105.587 5.80862 106.12 6.1818C106.646 6.55499 106.98 7.03479 107.126 7.62123H107.226V1.56364H110.185V16.3577H107.22V14.5918ZM105.28 14.1919C105.84 14.1919 106.3 14.0587 106.666 13.7854C107.033 13.5122 107.22 13.1324 107.22 12.6525V9.55379C107.22 9.07398 107.033 8.70079 106.666 8.42091C106.3 8.14768 105.833 8.0144 105.28 8.0144C104.721 8.0144 104.254 8.21432 103.887 8.60083C103.521 8.99401 103.334 9.52713 103.334 10.1869V12.0061C103.334 12.6725 103.514 13.2057 103.887 13.5922C104.254 13.992 104.721 14.1919 105.28 14.1919Z" fill="#001870"/>
<path d="M44.0647 34.2506C43.0518 34.2506 42.1988 34.084 41.5057 33.7641C40.8127 33.4376 40.1929 32.9778 39.6465 32.378L41.3858 30.6187C41.759 31.0319 42.1721 31.3584 42.6253 31.5983C43.0784 31.8382 43.5916 31.9582 44.1647 31.9582C44.7511 31.9582 45.1576 31.8715 45.3842 31.6916C45.6108 31.5117 45.7241 31.2718 45.7241 30.9586C45.7241 30.4654 45.3709 30.1722 44.6645 30.0789L43.5249 29.939C41.1659 29.6458 39.9863 28.5662 39.9863 26.7003C39.9863 26.1938 40.0796 25.734 40.2796 25.3075C40.4728 24.8877 40.746 24.5278 41.0992 24.2279C41.4524 23.9281 41.8789 23.6948 42.3787 23.5282C42.8785 23.3616 43.4383 23.275 44.0714 23.275C44.6178 23.275 45.0976 23.315 45.5241 23.3816C45.944 23.4549 46.3171 23.5615 46.6437 23.7015C46.9702 23.8414 47.2701 24.0147 47.5433 24.2213C47.8165 24.4279 48.0831 24.6611 48.3497 24.9077L46.6437 26.6536C46.3105 26.3204 45.9373 26.0605 45.5175 25.8673C45.0976 25.674 44.6645 25.5807 44.2247 25.5807C43.7182 25.5807 43.3583 25.6607 43.1451 25.8206C42.9318 25.9806 42.8252 26.1938 42.8252 26.4604C42.8252 26.7403 42.8985 26.9602 43.0585 27.1135C43.2117 27.2667 43.4983 27.38 43.9248 27.4467L45.1043 27.6066C47.41 27.9131 48.5629 28.966 48.5629 30.7653C48.5629 31.2718 48.4563 31.7383 48.243 32.1648C48.0298 32.5913 47.7233 32.9644 47.3367 33.2777C46.9436 33.5909 46.4704 33.8374 45.9173 34.0107C45.3575 34.164 44.7444 34.2506 44.0647 34.2506Z" fill="#007F00"/>
<path d="M54.9604 34.2506C54.1607 34.2506 53.4476 34.124 52.8212 33.8641C52.1948 33.6042 51.6617 33.2377 51.2352 32.7645C50.8021 32.2914 50.4755 31.7116 50.2556 31.0319C50.0357 30.3522 49.9224 29.5925 49.9224 28.7528C49.9224 27.9265 50.029 27.1801 50.2423 26.5004C50.4555 25.8273 50.7687 25.2475 51.1952 24.7744C51.6151 24.2946 52.1282 23.9214 52.7479 23.6615C53.361 23.4016 54.0607 23.275 54.8471 23.275C55.7134 23.275 56.4531 23.4216 57.0728 23.7148C57.6926 24.008 58.199 24.4012 58.5922 24.8943C58.9854 25.3875 59.2719 25.9606 59.4518 26.6003C59.6318 27.2467 59.7184 27.9265 59.7184 28.6328V29.5125H52.9812V29.6724C52.9812 30.3588 53.1678 30.9053 53.5409 31.3051C53.9141 31.7116 54.5005 31.9115 55.3002 31.9115C55.9133 31.9115 56.4131 31.7916 56.7996 31.545C57.1861 31.2984 57.546 31.0052 57.8792 30.6654L59.3586 32.5113C58.8921 33.0577 58.279 33.4842 57.526 33.7974C56.773 34.0973 55.92 34.2506 54.9604 34.2506ZM54.9004 25.4541C54.3006 25.4541 53.8342 25.654 53.4943 26.0472C53.1544 26.4404 52.9878 26.9668 52.9878 27.6133V27.7732H56.6663V27.5933C56.6663 26.9535 56.5197 26.4404 56.2332 26.0405C55.94 25.6474 55.5001 25.4541 54.9004 25.4541Z" fill="#007F00"/>
<path d="M61.8177 34.0107V23.5149H64.7764V25.794H64.8764C64.9297 25.5008 65.023 25.2209 65.1563 24.941C65.2895 24.6678 65.4695 24.4279 65.6894 24.208C65.9093 23.9947 66.1691 23.8281 66.4757 23.6948C66.7822 23.5682 67.1421 23.5082 67.5552 23.5082H68.075V26.2671H67.3353C66.469 26.2671 65.8226 26.3804 65.4028 26.607C64.983 26.8336 64.7698 27.2534 64.7698 27.8665V34.004H61.8177V34.0107Z" fill="#007F00"/>
<path d="M72.2733 34.0107L68.8347 23.5149H71.7536L73.053 27.7532L74.0326 31.5517H74.1926L75.1722 27.7532L76.4317 23.5149H79.2306L75.7919 34.0107H72.2733Z" fill="#007F00"/>
<path d="M82.2694 22.3953C81.6696 22.3953 81.2298 22.262 80.9565 21.9821C80.6833 21.7089 80.5433 21.3624 80.5433 20.9292V20.4894C80.5433 20.0629 80.6766 19.7164 80.9565 19.4365C81.2298 19.1632 81.6696 19.03 82.2694 19.03C82.8692 19.03 83.3024 19.1699 83.5756 19.4365C83.8489 19.7097 83.9888 20.0629 83.9888 20.4894V20.9292C83.9888 21.3557 83.8489 21.7089 83.5756 21.9821C83.3024 22.2554 82.8692 22.3953 82.2694 22.3953ZM80.7899 23.5149H83.7489V34.0107H80.7899V23.5149Z" fill="#007F00"/>
<path d="M90.746 34.2506C89.9597 34.2506 89.26 34.124 88.6469 33.8641C88.0338 33.6042 87.5207 33.2377 87.1075 32.7645C86.6944 32.2914 86.3812 31.7116 86.1679 31.0319C85.9547 30.3522 85.8481 29.5925 85.8481 28.7528C85.8481 27.9131 85.9547 27.1601 86.1679 26.487C86.3812 25.814 86.6944 25.2342 87.1075 24.7544C87.5207 24.2746 88.0338 23.9081 88.6469 23.6548C89.26 23.4016 89.9597 23.275 90.746 23.275C91.8122 23.275 92.6985 23.5149 93.4116 23.9947C94.1246 24.4745 94.6311 25.1476 94.9443 26.0139L92.5453 27.0535C92.452 26.6536 92.2587 26.3138 91.9655 26.0339C91.6723 25.754 91.2658 25.6141 90.746 25.6141C90.1463 25.6141 89.6931 25.814 89.3866 26.2005C89.0801 26.5937 88.9268 27.1268 88.9268 27.7932V29.7524C88.9268 30.4188 89.0801 30.9453 89.3866 31.3318C89.6931 31.7183 90.1463 31.9115 90.746 31.9115C91.2791 31.9115 91.699 31.7716 92.0122 31.4784C92.3254 31.1918 92.5519 30.8186 92.7052 30.3455L95.0042 31.3451C94.6577 32.3447 94.1179 33.0777 93.3916 33.5442C92.6652 34.0174 91.7856 34.2506 90.746 34.2506Z" fill="#007F00"/>
<path d="M101.122 34.2506C100.322 34.2506 99.6091 34.124 98.9826 33.8641C98.3562 33.6042 97.8231 33.2377 97.3966 32.7645C96.9634 32.2914 96.6369 31.7116 96.417 31.0319C96.1971 30.3522 96.0838 29.5925 96.0838 28.7528C96.0838 27.9265 96.1904 27.1801 96.4037 26.5004C96.6169 25.8273 96.9368 25.2475 97.3566 24.7744C97.7765 24.2946 98.2896 23.9214 98.9093 23.6615C99.5224 23.4016 100.222 23.275 101.009 23.275C101.875 23.275 102.621 23.4216 103.241 23.7148C103.861 24.008 104.367 24.4012 104.76 24.8943C105.154 25.3875 105.44 25.9606 105.62 26.6003C105.8 27.2467 105.887 27.9265 105.887 28.6328V29.5125H99.1492V29.6724C99.1492 30.3588 99.3358 30.9053 99.709 31.3051C100.082 31.7116 100.669 31.9115 101.468 31.9115C102.081 31.9115 102.581 31.7916 102.968 31.545C103.354 31.2984 103.714 31.0052 104.047 30.6654L105.527 32.5113C105.06 33.0577 104.447 33.4842 103.694 33.7974C102.934 34.0973 102.081 34.2506 101.122 34.2506ZM101.062 25.4541C100.462 25.4541 99.9956 25.654 99.649 26.0472C99.3092 26.4404 99.1426 26.9668 99.1426 27.6133V27.7732H102.821V27.5933C102.821 26.9535 102.675 26.4404 102.388 26.0405C102.101 25.6474 101.662 25.4541 101.062 25.4541Z" fill="#007F00"/>
</svg>
